<svg xmlns="http://www.w3.org/2000/svg" viewBox="167.8 163.3 917.2 917.2" role="img" aria-label="Selia rotated logo mark">
  <g transform="rotate(5 627.0 627.0)">
    <path fill="#006A72" fill-rule="evenodd" clip-rule="evenodd" d="M 395.0 236.0 L 405.0 236.0 L 405.0 237.0 L 408.0 237.0 L 408.0 238.0 L 410.0 238.0 L 410.0 239.0 L 412.0 239.0 L 412.0 240.0 L 414.0 240.0 L 414.0 241.0 L 415.0 241.0 L 415.0 242.0 L 416.0 242.0 L 416.0 243.0 L 417.0 243.0 L 417.0 244.0 L 419.0 245.0 L 419.0 247.0 L 421.0 247.0 L 421.0 249.0 L 422.0 249.0 L 422.0 250.0 L 423.0 250.0 L 424.0 252.0 L 426.0 252.0 L 426.0 253.0 L 427.0 253.0 L 427.0 254.0 L 428.0 254.0 L 428.0 255.0 L 429.0 255.0 L 429.0 256.0 L 430.0 256.0 L 430.0 257.0 L 431.0 257.0 L 431.0 258.0 L 432.0 258.0 L 432.0 259.0 L 433.0 259.0 L 433.0 260.0 L 434.0 260.0 L 435.0 262.0 L 437.0 262.0 L 437.0 263.0 L 438.0 263.0 L 438.0 264.0 L 439.0 264.0 L 439.0 265.0 L 440.0 265.0 L 440.0 266.0 L 441.0 266.0 L 441.0 267.0 L 442.0 267.0 L 442.0 268.0 L 443.0 268.0 L 443.0 269.0 L 444.0 269.0 L 445.0 271.0 L 447.0 271.0 L 447.0 272.0 L 448.0 272.0 L 448.0 273.0 L 449.0 273.0 L 449.0 274.0 L 450.0 274.0 L 450.0 275.0 L 451.0 275.0 L 451.0 276.0 L 452.0 276.0 L 452.0 277.0 L 453.0 277.0 L 453.0 278.0 L 454.0 278.0 L 455.0 280.0 L 457.0 280.0 L 457.0 281.0 L 458.0 281.0 L 458.0 282.0 L 459.0 282.0 L 459.0 283.0 L 460.0 283.0 L 460.0 284.0 L 461.0 284.0 L 461.0 285.0 L 462.0 285.0 L 462.0 286.0 L 463.0 286.0 L 463.0 287.0 L 464.0 287.0 L 465.0 289.0 L 467.0 289.0 L 467.0 290.0 L 468.0 290.0 L 468.0 291.0 L 469.0 291.0 L 469.0 292.0 L 470.0 292.0 L 470.0 293.0 L 471.0 293.0 L 471.0 294.0 L 472.0 294.0 L 472.0 295.0 L 473.0 295.0 L 474.0 297.0 L 476.0 297.0 L 476.0 298.0 L 477.0 298.0 L 477.0 299.0 L 478.0 299.0 L 478.0 300.0 L 479.0 300.0 L 479.0 301.0 L 480.0 301.0 L 480.0 302.0 L 481.0 302.0 L 481.0 303.0 L 482.0 303.0 L 483.0 305.0 L 485.0 305.0 L 485.0 306.0 L 486.0 306.0 L 486.0 307.0 L 487.0 307.0 L 487.0 308.0 L 488.0 308.0 L 488.0 309.0 L 489.0 309.0 L 489.0 310.0 L 490.0 310.0 L 490.0 311.0 L 491.0 311.0 L 491.0 312.0 L 492.0 312.0 L 492.0 313.0 L 493.0 313.0 L 494.0 315.0 L 496.0 315.0 L 496.0 316.0 L 497.0 316.0 L 497.0 317.0 L 498.0 317.0 L 498.0 318.0 L 499.0 318.0 L 499.0 319.0 L 500.0 319.0 L 500.0 320.0 L 501.0 320.0 L 501.0 321.0 L 502.0 321.0 L 503.0 323.0 L 505.0 323.0 L 505.0 324.0 L 506.0 324.0 L 506.0 325.0 L 507.0 325.0 L 507.0 326.0 L 508.0 326.0 L 508.0 327.0 L 509.0 327.0 L 509.0 328.0 L 510.0 328.0 L 510.0 329.0 L 511.0 329.0 L 511.0 330.0 L 512.0 330.0 L 513.0 332.0 L 515.0 332.0 L 515.0 333.0 L 516.0 333.0 L 516.0 334.0 L 517.0 334.0 L 517.0 335.0 L 518.0 335.0 L 518.0 336.0 L 519.0 336.0 L 519.0 337.0 L 520.0 337.0 L 520.0 338.0 L 521.0 338.0 L 521.0 339.0 L 522.0 339.0 L 523.0 341.0 L 525.0 341.0 L 525.0 342.0 L 526.0 342.0 L 526.0 343.0 L 527.0 343.0 L 527.0 344.0 L 528.0 344.0 L 528.0 345.0 L 529.0 345.0 L 529.0 346.0 L 530.0 346.0 L 530.0 347.0 L 531.0 347.0 L 532.0 349.0 L 534.0 349.0 L 534.0 350.0 L 535.0 350.0 L 535.0 351.0 L 536.0 351.0 L 536.0 352.0 L 537.0 352.0 L 537.0 353.0 L 538.0 353.0 L 538.0 354.0 L 539.0 354.0 L 539.0 355.0 L 540.0 355.0 L 540.0 356.0 L 541.0 356.0 L 541.0 357.0 L 542.0 357.0 L 543.0 359.0 L 545.0 359.0 L 545.0 360.0 L 546.0 360.0 L 546.0 361.0 L 547.0 361.0 L 547.0 362.0 L 548.0 362.0 L 548.0 363.0 L 549.0 363.0 L 549.0 364.0 L 550.0 364.0 L 550.0 365.0 L 551.0 365.0 L 551.0 366.0 L 552.0 366.0 L 553.0 368.0 L 555.0 368.0 L 555.0 369.0 L 556.0 369.0 L 556.0 370.0 L 557.0 370.0 L 557.0 371.0 L 558.0 371.0 L 558.0 372.0 L 559.0 372.0 L 559.0 373.0 L 560.0 373.0 L 560.0 374.0 L 561.0 374.0 L 562.0 376.0 L 564.0 376.0 L 564.0 377.0 L 565.0 377.0 L 565.0 378.0 L 566.0 378.0 L 566.0 379.0 L 567.0 379.0 L 567.0 380.0 L 568.0 380.0 L 568.0 381.0 L 569.0 381.0 L 569.0 382.0 L 570.0 382.0 L 570.0 383.0 L 571.0 383.0 L 571.0 384.0 L 572.0 384.0 L 573.0 386.0 L 575.0 386.0 L 575.0 387.0 L 576.0 387.0 L 576.0 388.0 L 577.0 388.0 L 577.0 389.0 L 579.0 390.0 L 579.0 392.0 L 580.0 392.0 L 581.0 394.0 L 583.0 394.0 L 583.0 395.0 L 584.0 395.0 L 584.0 396.0 L 586.0 397.0 L 586.0 398.0 L 566.0 398.0 L 566.0 399.0 L 561.0 399.0 L 561.0 400.0 L 558.0 400.0 L 558.0 401.0 L 555.0 401.0 L 555.0 402.0 L 553.0 402.0 L 553.0 403.0 L 550.0 403.0 L 550.0 404.0 L 548.0 404.0 L 547.0 406.0 L 545.0 406.0 L 544.0 408.0 L 542.0 408.0 L 542.0 409.0 L 541.0 409.0 L 541.0 410.0 L 540.0 410.0 L 540.0 411.0 L 539.0 411.0 L 539.0 412.0 L 538.0 412.0 L 538.0 413.0 L 537.0 413.0 L 537.0 414.0 L 536.0 414.0 L 536.0 415.0 L 534.0 416.0 L 534.0 418.0 L 533.0 418.0 L 533.0 419.0 L 531.0 420.0 L 531.0 422.0 L 530.0 422.0 L 530.0 424.0 L 529.0 424.0 L 529.0 426.0 L 528.0 426.0 L 528.0 428.0 L 527.0 428.0 L 527.0 430.0 L 526.0 430.0 L 526.0 434.0 L 525.0 434.0 L 525.0 437.0 L 524.0 437.0 L 524.0 444.0 L 523.0 444.0 L 523.0 560.0 L 524.0 560.0 L 524.0 566.0 L 525.0 566.0 L 525.0 571.0 L 526.0 571.0 L 526.0 574.0 L 527.0 574.0 L 527.0 577.0 L 528.0 577.0 L 528.0 580.0 L 529.0 580.0 L 529.0 582.0 L 530.0 582.0 L 530.0 585.0 L 531.0 585.0 L 531.0 587.0 L 532.0 587.0 L 532.0 589.0 L 534.0 590.0 L 534.0 592.0 L 535.0 592.0 L 535.0 594.0 L 536.0 594.0 L 536.0 595.0 L 538.0 596.0 L 538.0 598.0 L 539.0 598.0 L 539.0 599.0 L 541.0 600.0 L 541.0 602.0 L 542.0 602.0 L 542.0 603.0 L 543.0 603.0 L 543.0 604.0 L 544.0 604.0 L 544.0 605.0 L 545.0 605.0 L 545.0 606.0 L 546.0 606.0 L 546.0 607.0 L 547.0 607.0 L 547.0 608.0 L 548.0 608.0 L 548.0 609.0 L 549.0 609.0 L 550.0 611.0 L 552.0 611.0 L 552.0 612.0 L 553.0 612.0 L 553.0 613.0 L 554.0 613.0 L 554.0 614.0 L 555.0 614.0 L 555.0 615.0 L 556.0 615.0 L 556.0 616.0 L 557.0 616.0 L 557.0 617.0 L 558.0 617.0 L 558.0 618.0 L 559.0 618.0 L 559.0 619.0 L 560.0 619.0 L 560.0 620.0 L 561.0 620.0 L 561.0 621.0 L 562.0 621.0 L 562.0 622.0 L 563.0 622.0 L 563.0 623.0 L 564.0 623.0 L 564.0 624.0 L 565.0 624.0 L 565.0 625.0 L 566.0 625.0 L 566.0 626.0 L 567.0 626.0 L 567.0 627.0 L 568.0 627.0 L 568.0 628.0 L 569.0 628.0 L 569.0 629.0 L 570.0 629.0 L 570.0 630.0 L 571.0 630.0 L 571.0 631.0 L 572.0 631.0 L 572.0 632.0 L 573.0 632.0 L 573.0 633.0 L 574.0 633.0 L 574.0 634.0 L 575.0 634.0 L 575.0 635.0 L 576.0 635.0 L 576.0 636.0 L 577.0 636.0 L 577.0 637.0 L 578.0 637.0 L 578.0 638.0 L 579.0 638.0 L 579.0 639.0 L 580.0 639.0 L 580.0 640.0 L 581.0 640.0 L 581.0 641.0 L 582.0 641.0 L 582.0 642.0 L 583.0 642.0 L 583.0 643.0 L 584.0 643.0 L 584.0 644.0 L 585.0 644.0 L 585.0 645.0 L 586.0 645.0 L 586.0 646.0 L 587.0 646.0 L 587.0 647.0 L 588.0 647.0 L 588.0 648.0 L 589.0 648.0 L 589.0 649.0 L 590.0 649.0 L 590.0 650.0 L 591.0 650.0 L 592.0 652.0 L 594.0 652.0 L 594.0 653.0 L 595.0 653.0 L 595.0 654.0 L 596.0 654.0 L 596.0 655.0 L 597.0 655.0 L 597.0 656.0 L 598.0 656.0 L 598.0 657.0 L 599.0 657.0 L 599.0 658.0 L 600.0 658.0 L 600.0 659.0 L 601.0 659.0 L 601.0 660.0 L 602.0 660.0 L 602.0 661.0 L 603.0 661.0 L 603.0 662.0 L 604.0 662.0 L 604.0 663.0 L 605.0 663.0 L 605.0 664.0 L 606.0 664.0 L 606.0 665.0 L 607.0 665.0 L 607.0 666.0 L 608.0 666.0 L 608.0 667.0 L 609.0 667.0 L 609.0 668.0 L 610.0 668.0 L 610.0 669.0 L 611.0 669.0 L 611.0 670.0 L 612.0 670.0 L 612.0 671.0 L 613.0 671.0 L 613.0 672.0 L 614.0 672.0 L 614.0 673.0 L 615.0 673.0 L 615.0 674.0 L 616.0 674.0 L 616.0 675.0 L 617.0 675.0 L 617.0 676.0 L 618.0 676.0 L 618.0 677.0 L 619.0 677.0 L 619.0 678.0 L 620.0 678.0 L 620.0 679.0 L 621.0 679.0 L 621.0 680.0 L 622.0 680.0 L 622.0 681.0 L 623.0 681.0 L 624.0 683.0 L 626.0 683.0 L 626.0 684.0 L 627.0 684.0 L 627.0 685.0 L 628.0 685.0 L 628.0 686.0 L 629.0 686.0 L 629.0 687.0 L 630.0 687.0 L 630.0 688.0 L 631.0 688.0 L 631.0 689.0 L 633.0 690.0 L 633.0 692.0 L 634.0 692.0 L 634.0 693.0 L 636.0 694.0 L 636.0 696.0 L 637.0 696.0 L 637.0 697.0 L 638.0 697.0 L 638.0 699.0 L 640.0 700.0 L 640.0 702.0 L 641.0 702.0 L 641.0 704.0 L 642.0 704.0 L 642.0 706.0 L 643.0 706.0 L 643.0 708.0 L 644.0 708.0 L 644.0 711.0 L 645.0 711.0 L 645.0 714.0 L 646.0 714.0 L 646.0 717.0 L 647.0 717.0 L 647.0 721.0 L 648.0 721.0 L 648.0 728.0 L 649.0 728.0 L 649.0 989.0 L 648.0 989.0 L 648.0 994.0 L 647.0 994.0 L 647.0 997.0 L 646.0 997.0 L 646.0 999.0 L 645.0 999.0 L 645.0 1001.0 L 644.0 1001.0 L 644.0 1002.0 L 643.0 1002.0 L 643.0 1003.0 L 642.0 1003.0 L 641.0 1005.0 L 639.0 1005.0 L 639.0 1006.0 L 637.0 1006.0 L 637.0 1007.0 L 633.0 1007.0 L 633.0 1008.0 L 630.0 1008.0 L 630.0 1007.0 L 626.0 1007.0 L 626.0 1006.0 L 624.0 1006.0 L 624.0 1005.0 L 622.0 1005.0 L 622.0 1004.0 L 621.0 1004.0 L 621.0 1003.0 L 620.0 1003.0 L 620.0 1002.0 L 619.0 1002.0 L 619.0 1001.0 L 618.0 1001.0 L 618.0 1000.0 L 617.0 1000.0 L 616.0 998.0 L 614.0 998.0 L 614.0 997.0 L 613.0 997.0 L 613.0 996.0 L 612.0 996.0 L 612.0 995.0 L 611.0 995.0 L 611.0 994.0 L 610.0 994.0 L 610.0 993.0 L 609.0 993.0 L 609.0 992.0 L 608.0 992.0 L 608.0 991.0 L 607.0 991.0 L 607.0 990.0 L 606.0 990.0 L 606.0 989.0 L 605.0 989.0 L 605.0 988.0 L 604.0 988.0 L 604.0 987.0 L 603.0 987.0 L 603.0 986.0 L 602.0 986.0 L 601.0 984.0 L 599.0 984.0 L 599.0 983.0 L 598.0 983.0 L 598.0 982.0 L 597.0 982.0 L 597.0 981.0 L 596.0 981.0 L 596.0 980.0 L 595.0 980.0 L 595.0 979.0 L 594.0 979.0 L 594.0 978.0 L 593.0 978.0 L 593.0 977.0 L 592.0 977.0 L 592.0 976.0 L 591.0 976.0 L 591.0 975.0 L 590.0 975.0 L 590.0 974.0 L 589.0 974.0 L 589.0 973.0 L 588.0 973.0 L 588.0 972.0 L 587.0 972.0 L 586.0 970.0 L 584.0 970.0 L 584.0 969.0 L 583.0 969.0 L 583.0 968.0 L 582.0 968.0 L 582.0 967.0 L 581.0 967.0 L 581.0 966.0 L 580.0 966.0 L 580.0 965.0 L 579.0 965.0 L 579.0 964.0 L 578.0 964.0 L 578.0 963.0 L 577.0 963.0 L 577.0 962.0 L 576.0 962.0 L 576.0 961.0 L 575.0 961.0 L 575.0 960.0 L 574.0 960.0 L 574.0 959.0 L 573.0 959.0 L 572.0 957.0 L 570.0 957.0 L 570.0 956.0 L 569.0 956.0 L 569.0 955.0 L 568.0 955.0 L 568.0 954.0 L 567.0 954.0 L 567.0 953.0 L 566.0 953.0 L 566.0 952.0 L 565.0 952.0 L 565.0 951.0 L 564.0 951.0 L 564.0 950.0 L 563.0 950.0 L 563.0 949.0 L 562.0 949.0 L 562.0 948.0 L 561.0 948.0 L 561.0 947.0 L 560.0 947.0 L 560.0 946.0 L 559.0 946.0 L 558.0 944.0 L 556.0 944.0 L 556.0 943.0 L 555.0 943.0 L 555.0 942.0 L 554.0 942.0 L 554.0 941.0 L 553.0 941.0 L 553.0 940.0 L 552.0 940.0 L 552.0 939.0 L 551.0 939.0 L 551.0 938.0 L 550.0 938.0 L 550.0 937.0 L 549.0 937.0 L 549.0 936.0 L 548.0 936.0 L 548.0 935.0 L 547.0 935.0 L 546.0 933.0 L 544.0 933.0 L 544.0 932.0 L 543.0 932.0 L 543.0 931.0 L 542.0 931.0 L 542.0 930.0 L 541.0 930.0 L 541.0 929.0 L 540.0 929.0 L 540.0 928.0 L 539.0 928.0 L 539.0 927.0 L 538.0 927.0 L 538.0 926.0 L 537.0 926.0 L 537.0 925.0 L 536.0 925.0 L 536.0 924.0 L 535.0 924.0 L 535.0 923.0 L 534.0 923.0 L 533.0 921.0 L 531.0 921.0 L 531.0 920.0 L 530.0 920.0 L 530.0 919.0 L 529.0 919.0 L 529.0 918.0 L 528.0 918.0 L 528.0 917.0 L 527.0 917.0 L 527.0 916.0 L 526.0 916.0 L 526.0 915.0 L 525.0 915.0 L 525.0 914.0 L 524.0 914.0 L 524.0 913.0 L 523.0 913.0 L 523.0 912.0 L 522.0 912.0 L 522.0 911.0 L 521.0 911.0 L 521.0 910.0 L 520.0 910.0 L 519.0 908.0 L 517.0 908.0 L 517.0 907.0 L 516.0 907.0 L 516.0 906.0 L 515.0 906.0 L 515.0 905.0 L 514.0 905.0 L 514.0 904.0 L 513.0 904.0 L 513.0 903.0 L 512.0 903.0 L 512.0 902.0 L 511.0 902.0 L 511.0 901.0 L 510.0 901.0 L 510.0 900.0 L 509.0 900.0 L 509.0 899.0 L 508.0 899.0 L 508.0 898.0 L 507.0 898.0 L 506.0 896.0 L 504.0 896.0 L 504.0 895.0 L 503.0 895.0 L 503.0 894.0 L 502.0 894.0 L 502.0 893.0 L 501.0 893.0 L 501.0 892.0 L 500.0 892.0 L 500.0 891.0 L 499.0 891.0 L 499.0 890.0 L 498.0 890.0 L 498.0 889.0 L 497.0 889.0 L 497.0 888.0 L 496.0 888.0 L 496.0 887.0 L 495.0 887.0 L 495.0 886.0 L 494.0 886.0 L 494.0 885.0 L 493.0 885.0 L 492.0 883.0 L 490.0 883.0 L 490.0 882.0 L 489.0 882.0 L 489.0 881.0 L 488.0 881.0 L 488.0 880.0 L 487.0 880.0 L 487.0 879.0 L 486.0 879.0 L 486.0 878.0 L 485.0 878.0 L 485.0 877.0 L 484.0 877.0 L 484.0 876.0 L 483.0 876.0 L 483.0 875.0 L 482.0 875.0 L 482.0 874.0 L 481.0 874.0 L 481.0 873.0 L 480.0 873.0 L 480.0 872.0 L 479.0 872.0 L 478.0 870.0 L 476.0 870.0 L 476.0 869.0 L 475.0 869.0 L 475.0 868.0 L 474.0 868.0 L 474.0 867.0 L 473.0 867.0 L 473.0 866.0 L 472.0 866.0 L 472.0 865.0 L 471.0 865.0 L 471.0 864.0 L 470.0 864.0 L 470.0 863.0 L 469.0 863.0 L 469.0 862.0 L 468.0 862.0 L 468.0 861.0 L 467.0 861.0 L 466.0 859.0 L 464.0 859.0 L 464.0 858.0 L 463.0 858.0 L 463.0 857.0 L 462.0 857.0 L 462.0 856.0 L 461.0 856.0 L 461.0 855.0 L 460.0 855.0 L 460.0 854.0 L 459.0 854.0 L 459.0 853.0 L 458.0 853.0 L 458.0 852.0 L 457.0 852.0 L 457.0 851.0 L 456.0 851.0 L 456.0 850.0 L 455.0 850.0 L 455.0 849.0 L 454.0 849.0 L 454.0 848.0 L 453.0 848.0 L 452.0 846.0 L 450.0 846.0 L 450.0 845.0 L 449.0 845.0 L 449.0 844.0 L 448.0 844.0 L 448.0 843.0 L 447.0 843.0 L 447.0 842.0 L 446.0 842.0 L 446.0 841.0 L 445.0 841.0 L 445.0 840.0 L 444.0 840.0 L 444.0 839.0 L 443.0 839.0 L 443.0 838.0 L 442.0 838.0 L 442.0 837.0 L 441.0 837.0 L 441.0 836.0 L 440.0 836.0 L 439.0 834.0 L 437.0 834.0 L 437.0 833.0 L 436.0 833.0 L 436.0 832.0 L 435.0 832.0 L 435.0 831.0 L 434.0 831.0 L 434.0 830.0 L 433.0 830.0 L 433.0 829.0 L 432.0 829.0 L 432.0 828.0 L 431.0 828.0 L 431.0 827.0 L 430.0 827.0 L 430.0 826.0 L 429.0 826.0 L 429.0 825.0 L 428.0 825.0 L 428.0 824.0 L 427.0 824.0 L 426.0 822.0 L 424.0 822.0 L 424.0 821.0 L 423.0 821.0 L 423.0 820.0 L 422.0 820.0 L 422.0 819.0 L 421.0 819.0 L 421.0 818.0 L 420.0 818.0 L 420.0 817.0 L 419.0 817.0 L 419.0 816.0 L 418.0 816.0 L 418.0 815.0 L 417.0 815.0 L 417.0 814.0 L 416.0 814.0 L 416.0 813.0 L 415.0 813.0 L 415.0 812.0 L 414.0 812.0 L 413.0 810.0 L 411.0 810.0 L 411.0 809.0 L 410.0 809.0 L 410.0 808.0 L 409.0 808.0 L 409.0 807.0 L 408.0 807.0 L 408.0 806.0 L 407.0 806.0 L 407.0 805.0 L 406.0 805.0 L 406.0 804.0 L 405.0 804.0 L 405.0 803.0 L 404.0 803.0 L 404.0 802.0 L 403.0 802.0 L 403.0 801.0 L 402.0 801.0 L 402.0 800.0 L 401.0 800.0 L 401.0 799.0 L 400.0 799.0 L 399.0 797.0 L 397.0 797.0 L 397.0 796.0 L 396.0 796.0 L 396.0 795.0 L 395.0 795.0 L 395.0 794.0 L 394.0 794.0 L 394.0 793.0 L 393.0 793.0 L 393.0 792.0 L 392.0 792.0 L 392.0 791.0 L 391.0 791.0 L 391.0 790.0 L 390.0 790.0 L 390.0 789.0 L 389.0 789.0 L 389.0 788.0 L 388.0 788.0 L 388.0 787.0 L 387.0 787.0 L 386.0 785.0 L 384.0 785.0 L 384.0 784.0 L 383.0 784.0 L 383.0 783.0 L 382.0 783.0 L 382.0 782.0 L 381.0 782.0 L 381.0 781.0 L 380.0 781.0 L 380.0 780.0 L 379.0 780.0 L 379.0 779.0 L 378.0 779.0 L 378.0 778.0 L 377.0 778.0 L 377.0 777.0 L 376.0 777.0 L 376.0 776.0 L 375.0 776.0 L 375.0 775.0 L 374.0 775.0 L 373.0 773.0 L 371.0 773.0 L 371.0 772.0 L 370.0 772.0 L 370.0 771.0 L 369.0 771.0 L 369.0 770.0 L 368.0 770.0 L 368.0 769.0 L 367.0 769.0 L 367.0 768.0 L 366.0 768.0 L 366.0 767.0 L 365.0 767.0 L 365.0 766.0 L 364.0 766.0 L 364.0 765.0 L 363.0 765.0 L 363.0 764.0 L 362.0 764.0 L 361.0 762.0 L 359.0 762.0 L 358.0 760.0 L 356.0 760.0 L 356.0 759.0 L 355.0 759.0 L 355.0 758.0 L 354.0 758.0 L 354.0 757.0 L 353.0 757.0 L 353.0 756.0 L 352.0 756.0 L 352.0 755.0 L 351.0 755.0 L 351.0 754.0 L 349.0 753.0 L 349.0 751.0 L 348.0 751.0 L 348.0 750.0 L 347.0 750.0 L 347.0 748.0 L 345.0 747.0 L 345.0 745.0 L 344.0 745.0 L 344.0 743.0 L 343.0 743.0 L 343.0 740.0 L 342.0 740.0 L 342.0 736.0 L 341.0 736.0 L 341.0 730.0 L 340.0 730.0 L 340.0 563.0 L 341.0 563.0 L 341.0 559.0 L 342.0 559.0 L 342.0 556.0 L 343.0 556.0 L 343.0 554.0 L 345.0 553.0 L 345.0 551.0 L 346.0 551.0 L 346.0 550.0 L 347.0 550.0 L 347.0 549.0 L 348.0 549.0 L 348.0 548.0 L 349.0 548.0 L 349.0 547.0 L 350.0 547.0 L 351.0 545.0 L 353.0 545.0 L 353.0 544.0 L 355.0 544.0 L 355.0 543.0 L 357.0 543.0 L 357.0 542.0 L 361.0 542.0 L 361.0 541.0 L 371.0 541.0 L 371.0 542.0 L 375.0 542.0 L 375.0 543.0 L 378.0 543.0 L 378.0 544.0 L 380.0 544.0 L 380.0 545.0 L 382.0 545.0 L 382.0 546.0 L 383.0 546.0 L 383.0 547.0 L 384.0 547.0 L 384.0 548.0 L 386.0 549.0 L 386.0 551.0 L 387.0 551.0 L 387.0 552.0 L 388.0 552.0 L 388.0 553.0 L 389.0 553.0 L 389.0 554.0 L 390.0 554.0 L 390.0 555.0 L 391.0 555.0 L 391.0 556.0 L 392.0 556.0 L 392.0 557.0 L 393.0 557.0 L 393.0 558.0 L 394.0 558.0 L 394.0 559.0 L 395.0 559.0 L 396.0 561.0 L 398.0 561.0 L 398.0 562.0 L 399.0 562.0 L 399.0 563.0 L 400.0 563.0 L 400.0 564.0 L 401.0 564.0 L 401.0 565.0 L 402.0 565.0 L 402.0 566.0 L 403.0 566.0 L 403.0 567.0 L 404.0 567.0 L 404.0 568.0 L 405.0 568.0 L 405.0 569.0 L 406.0 569.0 L 406.0 570.0 L 407.0 570.0 L 407.0 571.0 L 408.0 571.0 L 409.0 573.0 L 411.0 573.0 L 411.0 574.0 L 412.0 574.0 L 412.0 575.0 L 413.0 575.0 L 413.0 576.0 L 414.0 576.0 L 414.0 577.0 L 415.0 577.0 L 415.0 578.0 L 416.0 578.0 L 416.0 579.0 L 417.0 579.0 L 417.0 580.0 L 418.0 580.0 L 418.0 581.0 L 419.0 581.0 L 420.0 583.0 L 422.0 583.0 L 422.0 584.0 L 423.0 584.0 L 423.0 585.0 L 424.0 585.0 L 424.0 586.0 L 425.0 586.0 L 425.0 587.0 L 426.0 587.0 L 426.0 588.0 L 427.0 588.0 L 427.0 589.0 L 428.0 589.0 L 428.0 590.0 L 429.0 590.0 L 429.0 591.0 L 430.0 591.0 L 430.0 592.0 L 431.0 592.0 L 431.0 593.0 L 432.0 593.0 L 433.0 595.0 L 435.0 595.0 L 435.0 596.0 L 436.0 596.0 L 436.0 597.0 L 437.0 597.0 L 437.0 598.0 L 438.0 598.0 L 438.0 599.0 L 439.0 599.0 L 439.0 600.0 L 440.0 600.0 L 440.0 601.0 L 441.0 601.0 L 441.0 602.0 L 442.0 602.0 L 442.0 603.0 L 443.0 603.0 L 444.0 605.0 L 446.0 605.0 L 446.0 606.0 L 447.0 606.0 L 447.0 607.0 L 448.0 607.0 L 448.0 608.0 L 449.0 608.0 L 449.0 609.0 L 450.0 609.0 L 450.0 610.0 L 451.0 610.0 L 451.0 611.0 L 452.0 611.0 L 452.0 612.0 L 453.0 612.0 L 453.0 613.0 L 454.0 613.0 L 454.0 614.0 L 455.0 614.0 L 455.0 615.0 L 456.0 615.0 L 456.0 616.0 L 457.0 616.0 L 458.0 618.0 L 460.0 618.0 L 460.0 619.0 L 461.0 619.0 L 461.0 620.0 L 462.0 620.0 L 462.0 621.0 L 463.0 621.0 L 463.0 622.0 L 464.0 622.0 L 464.0 623.0 L 465.0 623.0 L 465.0 624.0 L 466.0 624.0 L 466.0 625.0 L 467.0 625.0 L 468.0 627.0 L 470.0 627.0 L 470.0 628.0 L 471.0 628.0 L 471.0 629.0 L 472.0 629.0 L 472.0 630.0 L 473.0 630.0 L 473.0 631.0 L 474.0 631.0 L 474.0 632.0 L 476.0 633.0 L 476.0 635.0 L 478.0 635.0 L 478.0 636.0 L 479.0 636.0 L 479.0 637.0 L 480.0 637.0 L 480.0 638.0 L 481.0 638.0 L 482.0 640.0 L 484.0 640.0 L 484.0 641.0 L 485.0 641.0 L 485.0 642.0 L 486.0 642.0 L 486.0 643.0 L 487.0 643.0 L 487.0 644.0 L 488.0 644.0 L 488.0 645.0 L 489.0 645.0 L 489.0 646.0 L 490.0 646.0 L 490.0 647.0 L 491.0 647.0 L 491.0 648.0 L 492.0 648.0 L 492.0 649.0 L 493.0 649.0 L 494.0 651.0 L 496.0 651.0 L 496.0 652.0 L 497.0 652.0 L 497.0 653.0 L 498.0 653.0 L 498.0 654.0 L 499.0 654.0 L 499.0 655.0 L 500.0 655.0 L 500.0 656.0 L 501.0 656.0 L 501.0 657.0 L 502.0 657.0 L 502.0 658.0 L 503.0 658.0 L 503.0 659.0 L 504.0 659.0 L 504.0 660.0 L 505.0 660.0 L 505.0 661.0 L 506.0 661.0 L 506.0 662.0 L 507.0 662.0 L 507.0 663.0 L 508.0 663.0 L 508.0 664.0 L 509.0 664.0 L 510.0 666.0 L 512.0 666.0 L 512.0 667.0 L 513.0 667.0 L 513.0 668.0 L 514.0 668.0 L 514.0 669.0 L 515.0 669.0 L 515.0 670.0 L 516.0 670.0 L 516.0 671.0 L 517.0 671.0 L 517.0 672.0 L 518.0 672.0 L 518.0 673.0 L 519.0 673.0 L 519.0 674.0 L 520.0 674.0 L 521.0 676.0 L 523.0 676.0 L 523.0 677.0 L 524.0 677.0 L 524.0 679.0 L 526.0 679.0 L 526.0 681.0 L 528.0 681.0 L 528.0 682.0 L 529.0 682.0 L 529.0 683.0 L 530.0 683.0 L 530.0 684.0 L 531.0 684.0 L 531.0 685.0 L 532.0 685.0 L 532.0 686.0 L 533.0 686.0 L 534.0 688.0 L 536.0 688.0 L 536.0 690.0 L 537.0 690.0 L 537.0 691.0 L 538.0 691.0 L 538.0 692.0 L 539.0 692.0 L 539.0 693.0 L 540.0 693.0 L 540.0 694.0 L 541.0 694.0 L 542.0 696.0 L 544.0 696.0 L 544.0 697.0 L 545.0 697.0 L 545.0 698.0 L 546.0 698.0 L 547.0 700.0 L 549.0 700.0 L 549.0 701.0 L 550.0 701.0 L 550.0 702.0 L 551.0 702.0 L 551.0 703.0 L 552.0 703.0 L 552.0 704.0 L 554.0 705.0 L 554.0 707.0 L 555.0 707.0 L 555.0 708.0 L 557.0 708.0 L 557.0 709.0 L 558.0 709.0 L 558.0 710.0 L 559.0 710.0 L 559.0 711.0 L 560.0 711.0 L 560.0 712.0 L 561.0 712.0 L 561.0 713.0 L 562.0 713.0 L 562.0 714.0 L 563.0 714.0 L 564.0 716.0 L 566.0 716.0 L 566.0 717.0 L 567.0 717.0 L 567.0 718.0 L 568.0 718.0 L 568.0 719.0 L 569.0 719.0 L 569.0 720.0 L 570.0 720.0 L 570.0 721.0 L 571.0 721.0 L 571.0 722.0 L 572.0 722.0 L 572.0 723.0 L 573.0 723.0 L 573.0 724.0 L 574.0 724.0 L 574.0 725.0 L 575.0 725.0 L 575.0 726.0 L 576.0 726.0 L 576.0 727.0 L 577.0 727.0 L 577.0 728.0 L 578.0 728.0 L 578.0 729.0 L 579.0 729.0 L 579.0 730.0 L 580.0 730.0 L 580.0 731.0 L 581.0 731.0 L 582.0 733.0 L 584.0 733.0 L 584.0 734.0 L 585.0 734.0 L 585.0 735.0 L 586.0 735.0 L 586.0 736.0 L 587.0 736.0 L 587.0 737.0 L 588.0 737.0 L 588.0 738.0 L 589.0 738.0 L 589.0 739.0 L 590.0 739.0 L 591.0 741.0 L 593.0 741.0 L 593.0 742.0 L 594.0 742.0 L 594.0 743.0 L 595.0 743.0 L 596.0 745.0 L 598.0 745.0 L 598.0 746.0 L 601.0 746.0 L 601.0 747.0 L 604.0 747.0 L 604.0 748.0 L 610.0 748.0 L 610.0 747.0 L 614.0 747.0 L 614.0 746.0 L 617.0 746.0 L 617.0 745.0 L 618.0 745.0 L 618.0 744.0 L 619.0 744.0 L 619.0 743.0 L 620.0 743.0 L 620.0 742.0 L 621.0 742.0 L 621.0 741.0 L 623.0 740.0 L 623.0 738.0 L 624.0 738.0 L 624.0 735.0 L 625.0 735.0 L 625.0 722.0 L 624.0 722.0 L 624.0 719.0 L 623.0 719.0 L 623.0 717.0 L 622.0 717.0 L 622.0 715.0 L 621.0 715.0 L 621.0 713.0 L 620.0 713.0 L 620.0 711.0 L 619.0 711.0 L 619.0 709.0 L 618.0 709.0 L 618.0 708.0 L 617.0 708.0 L 617.0 707.0 L 616.0 707.0 L 616.0 706.0 L 615.0 706.0 L 615.0 705.0 L 614.0 705.0 L 614.0 704.0 L 613.0 704.0 L 613.0 703.0 L 612.0 703.0 L 612.0 702.0 L 611.0 702.0 L 611.0 701.0 L 610.0 701.0 L 610.0 700.0 L 609.0 700.0 L 609.0 699.0 L 608.0 699.0 L 608.0 698.0 L 607.0 698.0 L 607.0 697.0 L 606.0 697.0 L 606.0 696.0 L 605.0 696.0 L 605.0 695.0 L 604.0 695.0 L 603.0 693.0 L 601.0 693.0 L 601.0 692.0 L 600.0 692.0 L 600.0 691.0 L 599.0 691.0 L 599.0 690.0 L 598.0 690.0 L 598.0 689.0 L 597.0 689.0 L 597.0 688.0 L 596.0 688.0 L 596.0 687.0 L 595.0 687.0 L 595.0 686.0 L 594.0 686.0 L 594.0 685.0 L 593.0 685.0 L 592.0 683.0 L 590.0 683.0 L 590.0 682.0 L 589.0 682.0 L 589.0 681.0 L 588.0 681.0 L 588.0 680.0 L 587.0 680.0 L 587.0 679.0 L 586.0 679.0 L 586.0 678.0 L 585.0 678.0 L 585.0 677.0 L 584.0 677.0 L 584.0 676.0 L 583.0 676.0 L 582.0 674.0 L 580.0 674.0 L 580.0 673.0 L 579.0 673.0 L 579.0 672.0 L 578.0 672.0 L 578.0 671.0 L 577.0 671.0 L 577.0 670.0 L 576.0 670.0 L 576.0 669.0 L 575.0 669.0 L 575.0 668.0 L 574.0 668.0 L 574.0 667.0 L 573.0 667.0 L 573.0 666.0 L 572.0 666.0 L 572.0 665.0 L 571.0 665.0 L 571.0 664.0 L 570.0 664.0 L 569.0 662.0 L 567.0 662.0 L 567.0 661.0 L 566.0 661.0 L 566.0 660.0 L 565.0 660.0 L 565.0 659.0 L 564.0 659.0 L 564.0 658.0 L 563.0 658.0 L 563.0 657.0 L 562.0 657.0 L 562.0 656.0 L 561.0 656.0 L 561.0 655.0 L 560.0 655.0 L 560.0 654.0 L 559.0 654.0 L 559.0 653.0 L 558.0 653.0 L 557.0 651.0 L 555.0 651.0 L 555.0 650.0 L 554.0 650.0 L 554.0 649.0 L 553.0 649.0 L 553.0 648.0 L 552.0 648.0 L 552.0 647.0 L 551.0 647.0 L 551.0 646.0 L 550.0 646.0 L 550.0 645.0 L 549.0 645.0 L 549.0 644.0 L 548.0 644.0 L 547.0 642.0 L 545.0 642.0 L 545.0 641.0 L 544.0 641.0 L 544.0 640.0 L 543.0 640.0 L 543.0 639.0 L 542.0 639.0 L 542.0 638.0 L 541.0 638.0 L 541.0 637.0 L 540.0 637.0 L 540.0 636.0 L 539.0 636.0 L 539.0 635.0 L 538.0 635.0 L 538.0 634.0 L 537.0 634.0 L 537.0 633.0 L 536.0 633.0 L 535.0 631.0 L 533.0 631.0 L 533.0 630.0 L 532.0 630.0 L 532.0 629.0 L 531.0 629.0 L 531.0 628.0 L 530.0 628.0 L 530.0 627.0 L 529.0 627.0 L 529.0 626.0 L 528.0 626.0 L 528.0 625.0 L 527.0 625.0 L 527.0 624.0 L 526.0 624.0 L 526.0 623.0 L 525.0 623.0 L 524.0 621.0 L 522.0 621.0 L 522.0 620.0 L 521.0 620.0 L 521.0 619.0 L 520.0 619.0 L 520.0 618.0 L 519.0 618.0 L 519.0 617.0 L 518.0 617.0 L 518.0 616.0 L 517.0 616.0 L 517.0 615.0 L 516.0 615.0 L 516.0 614.0 L 515.0 614.0 L 515.0 613.0 L 514.0 613.0 L 514.0 612.0 L 513.0 612.0 L 512.0 610.0 L 510.0 610.0 L 510.0 609.0 L 509.0 609.0 L 509.0 608.0 L 508.0 608.0 L 508.0 607.0 L 507.0 607.0 L 507.0 606.0 L 506.0 606.0 L 506.0 605.0 L 505.0 605.0 L 504.0 603.0 L 502.0 603.0 L 502.0 602.0 L 501.0 602.0 L 501.0 601.0 L 500.0 601.0 L 500.0 600.0 L 499.0 600.0 L 499.0 599.0 L 498.0 599.0 L 498.0 598.0 L 497.0 598.0 L 497.0 597.0 L 496.0 597.0 L 496.0 596.0 L 495.0 596.0 L 495.0 595.0 L 494.0 595.0 L 493.0 593.0 L 491.0 593.0 L 491.0 592.0 L 490.0 592.0 L 490.0 591.0 L 489.0 591.0 L 489.0 590.0 L 488.0 590.0 L 488.0 589.0 L 487.0 589.0 L 487.0 588.0 L 486.0 588.0 L 486.0 587.0 L 485.0 587.0 L 485.0 586.0 L 484.0 586.0 L 484.0 585.0 L 483.0 585.0 L 482.0 583.0 L 480.0 583.0 L 480.0 582.0 L 479.0 582.0 L 479.0 581.0 L 478.0 581.0 L 478.0 580.0 L 477.0 580.0 L 477.0 579.0 L 476.0 579.0 L 476.0 578.0 L 475.0 578.0 L 475.0 577.0 L 474.0 577.0 L 474.0 576.0 L 473.0 576.0 L 473.0 575.0 L 472.0 575.0 L 471.0 573.0 L 469.0 573.0 L 469.0 572.0 L 468.0 572.0 L 468.0 571.0 L 467.0 571.0 L 467.0 570.0 L 466.0 570.0 L 466.0 569.0 L 465.0 569.0 L 465.0 568.0 L 464.0 568.0 L 464.0 567.0 L 463.0 567.0 L 463.0 566.0 L 462.0 566.0 L 461.0 564.0 L 459.0 564.0 L 459.0 563.0 L 458.0 563.0 L 458.0 562.0 L 457.0 562.0 L 457.0 561.0 L 456.0 561.0 L 456.0 560.0 L 455.0 560.0 L 455.0 559.0 L 454.0 559.0 L 454.0 558.0 L 453.0 558.0 L 453.0 557.0 L 452.0 557.0 L 452.0 556.0 L 451.0 556.0 L 450.0 554.0 L 448.0 554.0 L 448.0 553.0 L 447.0 553.0 L 447.0 552.0 L 446.0 552.0 L 446.0 551.0 L 445.0 551.0 L 445.0 550.0 L 444.0 550.0 L 444.0 549.0 L 443.0 549.0 L 443.0 548.0 L 442.0 548.0 L 442.0 547.0 L 441.0 547.0 L 441.0 546.0 L 440.0 546.0 L 439.0 544.0 L 437.0 544.0 L 437.0 543.0 L 436.0 543.0 L 436.0 542.0 L 435.0 542.0 L 435.0 541.0 L 434.0 541.0 L 434.0 540.0 L 433.0 540.0 L 433.0 539.0 L 432.0 539.0 L 432.0 538.0 L 431.0 538.0 L 431.0 537.0 L 430.0 537.0 L 430.0 536.0 L 429.0 536.0 L 429.0 535.0 L 428.0 535.0 L 427.0 533.0 L 425.0 533.0 L 425.0 532.0 L 424.0 532.0 L 424.0 531.0 L 423.0 531.0 L 423.0 530.0 L 422.0 530.0 L 422.0 529.0 L 421.0 529.0 L 421.0 528.0 L 420.0 528.0 L 420.0 527.0 L 419.0 527.0 L 419.0 526.0 L 418.0 526.0 L 418.0 525.0 L 417.0 525.0 L 417.0 524.0 L 416.0 524.0 L 415.0 522.0 L 413.0 522.0 L 413.0 521.0 L 412.0 521.0 L 412.0 520.0 L 411.0 520.0 L 411.0 519.0 L 410.0 519.0 L 410.0 518.0 L 409.0 518.0 L 409.0 517.0 L 408.0 517.0 L 408.0 516.0 L 407.0 516.0 L 407.0 515.0 L 406.0 515.0 L 405.0 513.0 L 403.0 513.0 L 403.0 512.0 L 402.0 512.0 L 402.0 511.0 L 401.0 511.0 L 401.0 510.0 L 400.0 510.0 L 400.0 509.0 L 399.0 509.0 L 399.0 508.0 L 398.0 508.0 L 397.0 506.0 L 395.0 506.0 L 395.0 505.0 L 393.0 505.0 L 393.0 504.0 L 392.0 504.0 L 392.0 503.0 L 391.0 503.0 L 391.0 502.0 L 389.0 501.0 L 389.0 499.0 L 388.0 499.0 L 388.0 498.0 L 386.0 497.0 L 386.0 495.0 L 385.0 495.0 L 385.0 493.0 L 384.0 493.0 L 384.0 492.0 L 383.0 492.0 L 383.0 490.0 L 382.0 490.0 L 382.0 487.0 L 381.0 487.0 L 381.0 484.0 L 380.0 484.0 L 380.0 480.0 L 379.0 480.0 L 379.0 475.0 L 378.0 475.0 L 378.0 256.0 L 379.0 256.0 L 379.0 252.0 L 380.0 252.0 L 380.0 249.0 L 381.0 249.0 L 381.0 247.0 L 383.0 246.0 L 383.0 244.0 L 384.0 244.0 L 384.0 243.0 L 385.0 243.0 L 385.0 242.0 L 386.0 242.0 L 386.0 241.0 L 387.0 241.0 L 388.0 239.0 L 390.0 239.0 L 390.0 238.0 L 392.0 238.0 L 392.0 237.0 L 395.0 237.0 Z
    M 861.0 982.0 L 851.0 982.0 L 851.0 981.0 L 848.0 981.0 L 848.0 980.0 L 846.0 980.0 L 846.0 979.0 L 844.0 979.0 L 843.0 977.0 L 841.0 977.0 L 841.0 976.0 L 840.0 976.0 L 840.0 975.0 L 839.0 975.0 L 839.0 974.0 L 838.0 974.0 L 838.0 973.0 L 837.0 973.0 L 837.0 972.0 L 836.0 972.0 L 836.0 971.0 L 835.0 971.0 L 835.0 970.0 L 834.0 970.0 L 834.0 969.0 L 833.0 969.0 L 832.0 967.0 L 830.0 967.0 L 830.0 966.0 L 829.0 966.0 L 829.0 965.0 L 828.0 965.0 L 828.0 964.0 L 827.0 964.0 L 827.0 963.0 L 826.0 963.0 L 826.0 962.0 L 825.0 962.0 L 825.0 961.0 L 824.0 961.0 L 824.0 960.0 L 823.0 960.0 L 823.0 959.0 L 822.0 959.0 L 821.0 957.0 L 819.0 957.0 L 819.0 956.0 L 818.0 956.0 L 818.0 955.0 L 817.0 955.0 L 817.0 954.0 L 816.0 954.0 L 816.0 953.0 L 815.0 953.0 L 815.0 952.0 L 814.0 952.0 L 814.0 951.0 L 813.0 951.0 L 813.0 950.0 L 812.0 950.0 L 812.0 949.0 L 811.0 949.0 L 811.0 948.0 L 810.0 948.0 L 809.0 946.0 L 807.0 946.0 L 807.0 945.0 L 806.0 945.0 L 806.0 944.0 L 805.0 944.0 L 805.0 943.0 L 804.0 943.0 L 804.0 942.0 L 803.0 942.0 L 803.0 941.0 L 802.0 941.0 L 802.0 940.0 L 801.0 940.0 L 801.0 939.0 L 800.0 939.0 L 800.0 938.0 L 799.0 938.0 L 799.0 937.0 L 798.0 937.0 L 797.0 935.0 L 795.0 935.0 L 795.0 934.0 L 794.0 934.0 L 794.0 933.0 L 793.0 933.0 L 793.0 932.0 L 792.0 932.0 L 792.0 931.0 L 791.0 931.0 L 791.0 930.0 L 790.0 930.0 L 790.0 929.0 L 789.0 929.0 L 789.0 928.0 L 788.0 928.0 L 788.0 927.0 L 787.0 927.0 L 787.0 926.0 L 786.0 926.0 L 786.0 925.0 L 785.0 925.0 L 784.0 923.0 L 782.0 923.0 L 782.0 922.0 L 781.0 922.0 L 781.0 921.0 L 780.0 921.0 L 780.0 920.0 L 779.0 920.0 L 779.0 919.0 L 778.0 919.0 L 778.0 918.0 L 777.0 918.0 L 777.0 917.0 L 776.0 917.0 L 776.0 916.0 L 775.0 916.0 L 775.0 915.0 L 774.0 915.0 L 774.0 914.0 L 773.0 914.0 L 772.0 912.0 L 770.0 912.0 L 770.0 911.0 L 769.0 911.0 L 769.0 910.0 L 768.0 910.0 L 768.0 909.0 L 767.0 909.0 L 767.0 908.0 L 766.0 908.0 L 766.0 907.0 L 765.0 907.0 L 765.0 906.0 L 764.0 906.0 L 764.0 905.0 L 763.0 905.0 L 763.0 904.0 L 762.0 904.0 L 762.0 903.0 L 761.0 903.0 L 761.0 902.0 L 760.0 902.0 L 759.0 900.0 L 757.0 900.0 L 757.0 899.0 L 756.0 899.0 L 756.0 898.0 L 755.0 898.0 L 755.0 897.0 L 754.0 897.0 L 754.0 896.0 L 753.0 896.0 L 753.0 895.0 L 752.0 895.0 L 752.0 894.0 L 751.0 894.0 L 751.0 893.0 L 750.0 893.0 L 750.0 892.0 L 749.0 892.0 L 748.0 890.0 L 746.0 890.0 L 746.0 889.0 L 745.0 889.0 L 745.0 888.0 L 744.0 888.0 L 744.0 887.0 L 743.0 887.0 L 743.0 886.0 L 742.0 886.0 L 742.0 885.0 L 741.0 885.0 L 741.0 884.0 L 740.0 884.0 L 740.0 883.0 L 739.0 883.0 L 739.0 882.0 L 738.0 882.0 L 738.0 881.0 L 737.0 881.0 L 736.0 879.0 L 734.0 879.0 L 734.0 878.0 L 733.0 878.0 L 733.0 877.0 L 732.0 877.0 L 732.0 876.0 L 731.0 876.0 L 731.0 875.0 L 730.0 875.0 L 730.0 874.0 L 729.0 874.0 L 729.0 873.0 L 728.0 873.0 L 728.0 872.0 L 727.0 872.0 L 727.0 871.0 L 726.0 871.0 L 726.0 870.0 L 725.0 870.0 L 724.0 868.0 L 722.0 868.0 L 722.0 867.0 L 721.0 867.0 L 721.0 866.0 L 720.0 866.0 L 720.0 865.0 L 719.0 865.0 L 719.0 864.0 L 718.0 864.0 L 718.0 863.0 L 717.0 863.0 L 717.0 862.0 L 716.0 862.0 L 716.0 861.0 L 715.0 861.0 L 715.0 860.0 L 714.0 860.0 L 713.0 858.0 L 711.0 858.0 L 711.0 857.0 L 710.0 857.0 L 710.0 856.0 L 709.0 856.0 L 709.0 855.0 L 708.0 855.0 L 708.0 854.0 L 707.0 854.0 L 707.0 853.0 L 706.0 853.0 L 706.0 852.0 L 705.0 852.0 L 705.0 851.0 L 704.0 851.0 L 704.0 850.0 L 703.0 850.0 L 703.0 849.0 L 702.0 849.0 L 701.0 847.0 L 699.0 847.0 L 699.0 846.0 L 698.0 846.0 L 698.0 845.0 L 697.0 845.0 L 697.0 844.0 L 696.0 844.0 L 696.0 843.0 L 695.0 843.0 L 695.0 842.0 L 694.0 842.0 L 694.0 841.0 L 693.0 841.0 L 693.0 840.0 L 692.0 840.0 L 691.0 838.0 L 689.0 838.0 L 689.0 837.0 L 688.0 837.0 L 688.0 836.0 L 687.0 836.0 L 687.0 835.0 L 686.0 835.0 L 686.0 834.0 L 685.0 834.0 L 685.0 833.0 L 684.0 833.0 L 684.0 832.0 L 683.0 832.0 L 683.0 831.0 L 682.0 831.0 L 682.0 830.0 L 681.0 830.0 L 680.0 828.0 L 678.0 828.0 L 678.0 827.0 L 677.0 827.0 L 676.0 825.0 L 674.0 825.0 L 674.0 824.0 L 672.0 824.0 L 672.0 823.0 L 671.0 823.0 L 671.0 822.0 L 670.0 822.0 L 670.0 821.0 L 668.0 820.0 L 668.0 816.0 L 675.0 816.0 L 675.0 815.0 L 685.0 815.0 L 685.0 814.0 L 690.0 814.0 L 690.0 813.0 L 693.0 813.0 L 693.0 812.0 L 695.0 812.0 L 695.0 811.0 L 697.0 811.0 L 697.0 810.0 L 699.0 810.0 L 699.0 809.0 L 701.0 809.0 L 701.0 808.0 L 703.0 808.0 L 703.0 807.0 L 704.0 807.0 L 705.0 805.0 L 707.0 805.0 L 707.0 804.0 L 708.0 804.0 L 708.0 803.0 L 709.0 803.0 L 709.0 802.0 L 710.0 802.0 L 710.0 801.0 L 711.0 801.0 L 711.0 800.0 L 712.0 800.0 L 712.0 799.0 L 713.0 799.0 L 713.0 798.0 L 715.0 797.0 L 715.0 795.0 L 716.0 795.0 L 716.0 794.0 L 717.0 794.0 L 717.0 792.0 L 719.0 791.0 L 719.0 789.0 L 720.0 789.0 L 720.0 786.0 L 721.0 786.0 L 721.0 784.0 L 722.0 784.0 L 722.0 781.0 L 723.0 781.0 L 723.0 777.0 L 724.0 777.0 L 724.0 771.0 L 725.0 771.0 L 725.0 658.0 L 724.0 658.0 L 724.0 649.0 L 723.0 649.0 L 723.0 644.0 L 722.0 644.0 L 722.0 640.0 L 721.0 640.0 L 721.0 637.0 L 720.0 637.0 L 720.0 634.0 L 719.0 634.0 L 719.0 632.0 L 718.0 632.0 L 718.0 630.0 L 717.0 630.0 L 717.0 627.0 L 715.0 626.0 L 715.0 624.0 L 714.0 624.0 L 714.0 622.0 L 713.0 622.0 L 713.0 620.0 L 711.0 619.0 L 711.0 617.0 L 710.0 617.0 L 710.0 615.0 L 709.0 615.0 L 709.0 613.0 L 708.0 613.0 L 708.0 612.0 L 707.0 612.0 L 707.0 611.0 L 706.0 611.0 L 706.0 610.0 L 705.0 610.0 L 705.0 609.0 L 704.0 609.0 L 704.0 608.0 L 703.0 608.0 L 703.0 607.0 L 702.0 607.0 L 702.0 606.0 L 701.0 606.0 L 701.0 605.0 L 700.0 605.0 L 700.0 604.0 L 699.0 604.0 L 699.0 603.0 L 698.0 603.0 L 698.0 602.0 L 697.0 602.0 L 697.0 601.0 L 696.0 601.0 L 696.0 600.0 L 695.0 600.0 L 695.0 599.0 L 694.0 599.0 L 694.0 598.0 L 693.0 598.0 L 692.0 596.0 L 690.0 596.0 L 690.0 595.0 L 689.0 595.0 L 689.0 594.0 L 688.0 594.0 L 688.0 593.0 L 687.0 593.0 L 687.0 592.0 L 686.0 592.0 L 686.0 591.0 L 685.0 591.0 L 685.0 590.0 L 684.0 590.0 L 684.0 589.0 L 683.0 589.0 L 683.0 588.0 L 682.0 588.0 L 682.0 587.0 L 681.0 587.0 L 681.0 586.0 L 680.0 586.0 L 680.0 585.0 L 679.0 585.0 L 679.0 584.0 L 678.0 584.0 L 678.0 583.0 L 677.0 583.0 L 676.0 581.0 L 674.0 581.0 L 674.0 580.0 L 673.0 580.0 L 673.0 579.0 L 672.0 579.0 L 672.0 578.0 L 671.0 578.0 L 671.0 577.0 L 670.0 577.0 L 670.0 576.0 L 669.0 576.0 L 669.0 575.0 L 668.0 575.0 L 668.0 574.0 L 667.0 574.0 L 667.0 573.0 L 666.0 573.0 L 666.0 572.0 L 665.0 572.0 L 665.0 571.0 L 664.0 571.0 L 664.0 570.0 L 663.0 570.0 L 663.0 569.0 L 662.0 569.0 L 662.0 568.0 L 661.0 568.0 L 660.0 566.0 L 658.0 566.0 L 658.0 565.0 L 657.0 565.0 L 657.0 564.0 L 656.0 564.0 L 656.0 563.0 L 655.0 563.0 L 655.0 562.0 L 654.0 562.0 L 654.0 561.0 L 653.0 561.0 L 653.0 560.0 L 652.0 560.0 L 652.0 559.0 L 651.0 559.0 L 651.0 558.0 L 650.0 558.0 L 650.0 557.0 L 649.0 557.0 L 649.0 556.0 L 648.0 556.0 L 648.0 555.0 L 647.0 555.0 L 647.0 554.0 L 646.0 554.0 L 646.0 553.0 L 645.0 553.0 L 644.0 551.0 L 642.0 551.0 L 642.0 550.0 L 641.0 550.0 L 641.0 549.0 L 640.0 549.0 L 640.0 548.0 L 639.0 548.0 L 639.0 547.0 L 638.0 547.0 L 638.0 546.0 L 637.0 546.0 L 637.0 545.0 L 636.0 545.0 L 636.0 544.0 L 635.0 544.0 L 635.0 543.0 L 634.0 543.0 L 634.0 542.0 L 633.0 542.0 L 633.0 541.0 L 632.0 541.0 L 632.0 540.0 L 631.0 540.0 L 631.0 539.0 L 630.0 539.0 L 629.0 537.0 L 627.0 537.0 L 627.0 536.0 L 626.0 536.0 L 626.0 535.0 L 625.0 535.0 L 624.0 533.0 L 622.0 533.0 L 622.0 532.0 L 621.0 532.0 L 621.0 531.0 L 620.0 531.0 L 620.0 530.0 L 619.0 530.0 L 619.0 529.0 L 617.0 528.0 L 617.0 526.0 L 616.0 526.0 L 616.0 525.0 L 614.0 524.0 L 614.0 522.0 L 612.0 521.0 L 612.0 519.0 L 611.0 519.0 L 611.0 517.0 L 610.0 517.0 L 610.0 515.0 L 609.0 515.0 L 609.0 513.0 L 608.0 513.0 L 608.0 510.0 L 607.0 510.0 L 607.0 507.0 L 606.0 507.0 L 606.0 503.0 L 605.0 503.0 L 605.0 497.0 L 604.0 497.0 L 604.0 261.0 L 605.0 261.0 L 605.0 256.0 L 606.0 256.0 L 606.0 253.0 L 607.0 253.0 L 607.0 251.0 L 608.0 251.0 L 608.0 249.0 L 610.0 248.0 L 610.0 246.0 L 611.0 246.0 L 611.0 245.0 L 612.0 245.0 L 612.0 244.0 L 613.0 244.0 L 614.0 242.0 L 616.0 242.0 L 616.0 241.0 L 618.0 241.0 L 618.0 240.0 L 620.0 240.0 L 620.0 239.0 L 624.0 239.0 L 624.0 238.0 L 631.0 238.0 L 631.0 239.0 L 635.0 239.0 L 635.0 240.0 L 637.0 240.0 L 637.0 241.0 L 639.0 241.0 L 639.0 242.0 L 641.0 242.0 L 641.0 243.0 L 643.0 243.0 L 643.0 244.0 L 644.0 244.0 L 644.0 245.0 L 645.0 245.0 L 645.0 246.0 L 647.0 247.0 L 647.0 249.0 L 649.0 249.0 L 649.0 250.0 L 650.0 250.0 L 650.0 251.0 L 652.0 252.0 L 652.0 254.0 L 653.0 254.0 L 654.0 256.0 L 656.0 256.0 L 657.0 258.0 L 659.0 258.0 L 659.0 259.0 L 660.0 259.0 L 660.0 261.0 L 661.0 261.0 L 661.0 262.0 L 662.0 262.0 L 663.0 264.0 L 665.0 264.0 L 665.0 265.0 L 666.0 265.0 L 666.0 266.0 L 667.0 266.0 L 667.0 267.0 L 668.0 267.0 L 668.0 268.0 L 669.0 268.0 L 669.0 269.0 L 670.0 269.0 L 671.0 271.0 L 673.0 271.0 L 673.0 272.0 L 674.0 272.0 L 674.0 273.0 L 675.0 273.0 L 675.0 274.0 L 676.0 274.0 L 676.0 275.0 L 677.0 275.0 L 677.0 276.0 L 678.0 276.0 L 678.0 277.0 L 679.0 277.0 L 680.0 279.0 L 682.0 279.0 L 682.0 280.0 L 683.0 280.0 L 683.0 281.0 L 684.0 281.0 L 684.0 282.0 L 685.0 282.0 L 685.0 283.0 L 686.0 283.0 L 686.0 284.0 L 687.0 284.0 L 688.0 286.0 L 690.0 286.0 L 690.0 287.0 L 691.0 287.0 L 691.0 288.0 L 692.0 288.0 L 692.0 289.0 L 693.0 289.0 L 693.0 290.0 L 694.0 290.0 L 694.0 291.0 L 695.0 291.0 L 695.0 292.0 L 696.0 292.0 L 696.0 293.0 L 697.0 293.0 L 697.0 294.0 L 698.0 294.0 L 699.0 296.0 L 701.0 296.0 L 701.0 297.0 L 702.0 297.0 L 702.0 298.0 L 703.0 298.0 L 703.0 299.0 L 704.0 299.0 L 704.0 300.0 L 705.0 300.0 L 705.0 301.0 L 706.0 301.0 L 707.0 303.0 L 709.0 303.0 L 709.0 304.0 L 710.0 304.0 L 710.0 305.0 L 711.0 305.0 L 711.0 306.0 L 712.0 306.0 L 712.0 307.0 L 713.0 307.0 L 713.0 308.0 L 714.0 308.0 L 714.0 309.0 L 715.0 309.0 L 715.0 310.0 L 716.0 310.0 L 717.0 312.0 L 719.0 312.0 L 719.0 313.0 L 720.0 313.0 L 720.0 314.0 L 721.0 314.0 L 721.0 315.0 L 722.0 315.0 L 722.0 316.0 L 723.0 316.0 L 724.0 318.0 L 726.0 318.0 L 726.0 319.0 L 727.0 319.0 L 727.0 320.0 L 728.0 320.0 L 728.0 321.0 L 729.0 321.0 L 729.0 322.0 L 730.0 322.0 L 730.0 323.0 L 731.0 323.0 L 731.0 324.0 L 732.0 324.0 L 732.0 325.0 L 733.0 325.0 L 734.0 327.0 L 736.0 327.0 L 736.0 328.0 L 737.0 328.0 L 737.0 329.0 L 738.0 329.0 L 738.0 330.0 L 739.0 330.0 L 739.0 331.0 L 740.0 331.0 L 740.0 332.0 L 741.0 332.0 L 741.0 333.0 L 742.0 333.0 L 743.0 335.0 L 745.0 335.0 L 745.0 336.0 L 746.0 336.0 L 746.0 337.0 L 747.0 337.0 L 747.0 338.0 L 748.0 338.0 L 748.0 339.0 L 749.0 339.0 L 749.0 340.0 L 750.0 340.0 L 750.0 341.0 L 751.0 341.0 L 751.0 342.0 L 752.0 342.0 L 752.0 343.0 L 753.0 343.0 L 754.0 345.0 L 756.0 345.0 L 756.0 346.0 L 757.0 346.0 L 757.0 347.0 L 758.0 347.0 L 758.0 348.0 L 759.0 348.0 L 759.0 349.0 L 760.0 349.0 L 760.0 350.0 L 761.0 350.0 L 761.0 351.0 L 762.0 351.0 L 763.0 353.0 L 765.0 353.0 L 765.0 354.0 L 766.0 354.0 L 766.0 355.0 L 767.0 355.0 L 767.0 356.0 L 768.0 356.0 L 768.0 357.0 L 769.0 357.0 L 769.0 358.0 L 770.0 358.0 L 771.0 360.0 L 773.0 360.0 L 773.0 361.0 L 774.0 361.0 L 774.0 362.0 L 775.0 362.0 L 775.0 363.0 L 776.0 363.0 L 776.0 364.0 L 777.0 364.0 L 777.0 365.0 L 778.0 365.0 L 778.0 366.0 L 779.0 366.0 L 779.0 367.0 L 780.0 367.0 L 781.0 369.0 L 783.0 369.0 L 783.0 370.0 L 784.0 370.0 L 784.0 371.0 L 785.0 371.0 L 785.0 372.0 L 786.0 372.0 L 786.0 373.0 L 787.0 373.0 L 787.0 374.0 L 788.0 374.0 L 788.0 375.0 L 789.0 375.0 L 790.0 377.0 L 792.0 377.0 L 792.0 378.0 L 793.0 378.0 L 793.0 379.0 L 794.0 379.0 L 794.0 380.0 L 795.0 380.0 L 795.0 381.0 L 796.0 381.0 L 796.0 382.0 L 797.0 382.0 L 797.0 383.0 L 798.0 383.0 L 799.0 385.0 L 801.0 385.0 L 801.0 386.0 L 802.0 386.0 L 802.0 387.0 L 803.0 387.0 L 803.0 388.0 L 804.0 388.0 L 804.0 389.0 L 805.0 389.0 L 805.0 390.0 L 806.0 390.0 L 806.0 391.0 L 807.0 391.0 L 808.0 393.0 L 810.0 393.0 L 810.0 394.0 L 811.0 394.0 L 811.0 395.0 L 812.0 395.0 L 812.0 396.0 L 813.0 396.0 L 813.0 397.0 L 814.0 397.0 L 814.0 398.0 L 815.0 398.0 L 815.0 399.0 L 816.0 399.0 L 817.0 401.0 L 819.0 401.0 L 819.0 402.0 L 820.0 402.0 L 820.0 403.0 L 821.0 403.0 L 821.0 404.0 L 822.0 404.0 L 822.0 405.0 L 823.0 405.0 L 823.0 406.0 L 824.0 406.0 L 824.0 407.0 L 825.0 407.0 L 826.0 409.0 L 828.0 409.0 L 828.0 410.0 L 829.0 410.0 L 829.0 411.0 L 830.0 411.0 L 830.0 412.0 L 831.0 412.0 L 831.0 413.0 L 832.0 413.0 L 832.0 414.0 L 833.0 414.0 L 833.0 415.0 L 834.0 415.0 L 835.0 417.0 L 837.0 417.0 L 837.0 418.0 L 838.0 418.0 L 838.0 419.0 L 839.0 419.0 L 839.0 420.0 L 840.0 420.0 L 840.0 421.0 L 841.0 421.0 L 841.0 422.0 L 842.0 422.0 L 842.0 423.0 L 843.0 423.0 L 844.0 425.0 L 846.0 425.0 L 846.0 426.0 L 847.0 426.0 L 847.0 427.0 L 848.0 427.0 L 848.0 428.0 L 849.0 428.0 L 849.0 429.0 L 850.0 429.0 L 850.0 430.0 L 851.0 430.0 L 851.0 431.0 L 852.0 431.0 L 853.0 433.0 L 855.0 433.0 L 855.0 434.0 L 856.0 434.0 L 856.0 435.0 L 857.0 435.0 L 857.0 436.0 L 858.0 436.0 L 858.0 437.0 L 859.0 437.0 L 859.0 438.0 L 860.0 438.0 L 860.0 439.0 L 861.0 439.0 L 862.0 441.0 L 864.0 441.0 L 864.0 442.0 L 865.0 442.0 L 865.0 443.0 L 866.0 443.0 L 866.0 444.0 L 867.0 444.0 L 867.0 445.0 L 868.0 445.0 L 868.0 446.0 L 869.0 446.0 L 870.0 448.0 L 872.0 448.0 L 872.0 449.0 L 873.0 449.0 L 873.0 450.0 L 874.0 450.0 L 874.0 451.0 L 875.0 451.0 L 875.0 452.0 L 876.0 452.0 L 876.0 453.0 L 877.0 453.0 L 877.0 454.0 L 878.0 454.0 L 878.0 455.0 L 879.0 455.0 L 880.0 457.0 L 882.0 457.0 L 882.0 458.0 L 883.0 458.0 L 883.0 459.0 L 884.0 459.0 L 884.0 460.0 L 885.0 460.0 L 885.0 461.0 L 886.0 461.0 L 886.0 462.0 L 887.0 462.0 L 887.0 463.0 L 888.0 463.0 L 889.0 465.0 L 891.0 465.0 L 891.0 466.0 L 892.0 466.0 L 892.0 467.0 L 893.0 467.0 L 893.0 468.0 L 894.0 468.0 L 894.0 469.0 L 895.0 469.0 L 895.0 470.0 L 896.0 470.0 L 896.0 471.0 L 897.0 471.0 L 897.0 472.0 L 898.0 472.0 L 898.0 473.0 L 900.0 474.0 L 900.0 476.0 L 901.0 476.0 L 901.0 477.0 L 903.0 478.0 L 903.0 480.0 L 904.0 480.0 L 904.0 481.0 L 905.0 481.0 L 905.0 483.0 L 907.0 484.0 L 907.0 486.0 L 908.0 486.0 L 908.0 488.0 L 909.0 488.0 L 909.0 491.0 L 910.0 491.0 L 910.0 494.0 L 911.0 494.0 L 911.0 500.0 L 912.0 500.0 L 912.0 664.0 L 911.0 664.0 L 911.0 667.0 L 910.0 667.0 L 910.0 670.0 L 909.0 670.0 L 909.0 672.0 L 908.0 672.0 L 908.0 674.0 L 907.0 674.0 L 907.0 675.0 L 906.0 675.0 L 906.0 676.0 L 905.0 676.0 L 905.0 677.0 L 904.0 677.0 L 903.0 679.0 L 901.0 679.0 L 901.0 680.0 L 899.0 680.0 L 899.0 681.0 L 896.0 681.0 L 896.0 682.0 L 885.0 682.0 L 885.0 681.0 L 883.0 681.0 L 883.0 680.0 L 880.0 680.0 L 879.0 678.0 L 877.0 678.0 L 877.0 677.0 L 876.0 677.0 L 876.0 676.0 L 875.0 676.0 L 875.0 675.0 L 874.0 675.0 L 873.0 673.0 L 871.0 673.0 L 871.0 672.0 L 870.0 672.0 L 870.0 671.0 L 869.0 671.0 L 869.0 670.0 L 868.0 670.0 L 868.0 669.0 L 867.0 669.0 L 867.0 668.0 L 866.0 668.0 L 866.0 667.0 L 865.0 667.0 L 865.0 666.0 L 864.0 666.0 L 864.0 665.0 L 863.0 665.0 L 863.0 664.0 L 862.0 664.0 L 862.0 663.0 L 861.0 663.0 L 860.0 661.0 L 858.0 661.0 L 858.0 660.0 L 857.0 660.0 L 857.0 659.0 L 856.0 659.0 L 856.0 658.0 L 855.0 658.0 L 855.0 657.0 L 854.0 657.0 L 854.0 656.0 L 853.0 656.0 L 853.0 655.0 L 852.0 655.0 L 852.0 654.0 L 851.0 654.0 L 851.0 653.0 L 850.0 653.0 L 850.0 652.0 L 849.0 652.0 L 848.0 650.0 L 846.0 650.0 L 846.0 649.0 L 845.0 649.0 L 845.0 648.0 L 844.0 648.0 L 844.0 647.0 L 843.0 647.0 L 843.0 646.0 L 842.0 646.0 L 842.0 645.0 L 841.0 645.0 L 841.0 644.0 L 840.0 644.0 L 840.0 643.0 L 839.0 643.0 L 839.0 642.0 L 838.0 642.0 L 838.0 641.0 L 837.0 641.0 L 837.0 640.0 L 836.0 640.0 L 835.0 638.0 L 833.0 638.0 L 833.0 637.0 L 832.0 637.0 L 832.0 636.0 L 831.0 636.0 L 831.0 635.0 L 830.0 635.0 L 830.0 634.0 L 829.0 634.0 L 829.0 633.0 L 828.0 633.0 L 828.0 632.0 L 827.0 632.0 L 827.0 631.0 L 826.0 631.0 L 826.0 630.0 L 825.0 630.0 L 825.0 629.0 L 824.0 629.0 L 823.0 627.0 L 821.0 627.0 L 821.0 626.0 L 820.0 626.0 L 820.0 625.0 L 819.0 625.0 L 819.0 624.0 L 818.0 624.0 L 818.0 623.0 L 817.0 623.0 L 817.0 622.0 L 816.0 622.0 L 816.0 621.0 L 815.0 621.0 L 815.0 620.0 L 814.0 620.0 L 813.0 618.0 L 811.0 618.0 L 811.0 617.0 L 810.0 617.0 L 810.0 616.0 L 809.0 616.0 L 809.0 615.0 L 808.0 615.0 L 808.0 614.0 L 807.0 614.0 L 807.0 613.0 L 806.0 613.0 L 806.0 612.0 L 805.0 612.0 L 805.0 611.0 L 804.0 611.0 L 804.0 610.0 L 803.0 610.0 L 803.0 609.0 L 802.0 609.0 L 802.0 608.0 L 801.0 608.0 L 801.0 607.0 L 800.0 607.0 L 799.0 605.0 L 797.0 605.0 L 797.0 604.0 L 796.0 604.0 L 796.0 603.0 L 795.0 603.0 L 795.0 602.0 L 794.0 602.0 L 794.0 601.0 L 793.0 601.0 L 793.0 600.0 L 792.0 600.0 L 792.0 599.0 L 791.0 599.0 L 791.0 598.0 L 790.0 598.0 L 790.0 597.0 L 789.0 597.0 L 788.0 595.0 L 786.0 595.0 L 786.0 594.0 L 785.0 594.0 L 785.0 593.0 L 784.0 593.0 L 784.0 592.0 L 783.0 592.0 L 783.0 591.0 L 782.0 591.0 L 782.0 590.0 L 781.0 590.0 L 781.0 589.0 L 780.0 589.0 L 780.0 588.0 L 779.0 588.0 L 779.0 587.0 L 778.0 587.0 L 778.0 586.0 L 777.0 586.0 L 776.0 584.0 L 774.0 584.0 L 774.0 583.0 L 773.0 583.0 L 773.0 582.0 L 772.0 582.0 L 772.0 581.0 L 771.0 581.0 L 771.0 580.0 L 770.0 580.0 L 770.0 579.0 L 769.0 579.0 L 769.0 578.0 L 768.0 578.0 L 768.0 577.0 L 767.0 577.0 L 767.0 576.0 L 766.0 576.0 L 766.0 575.0 L 765.0 575.0 L 765.0 574.0 L 764.0 574.0 L 763.0 572.0 L 761.0 572.0 L 761.0 571.0 L 760.0 571.0 L 760.0 570.0 L 759.0 570.0 L 759.0 569.0 L 758.0 569.0 L 758.0 568.0 L 757.0 568.0 L 757.0 567.0 L 756.0 567.0 L 756.0 566.0 L 755.0 566.0 L 755.0 565.0 L 754.0 565.0 L 754.0 564.0 L 753.0 564.0 L 752.0 562.0 L 750.0 562.0 L 750.0 561.0 L 749.0 561.0 L 749.0 560.0 L 748.0 560.0 L 748.0 559.0 L 747.0 559.0 L 747.0 558.0 L 746.0 558.0 L 746.0 557.0 L 745.0 557.0 L 745.0 556.0 L 744.0 556.0 L 744.0 555.0 L 743.0 555.0 L 743.0 554.0 L 742.0 554.0 L 742.0 553.0 L 741.0 553.0 L 741.0 552.0 L 740.0 552.0 L 739.0 550.0 L 737.0 550.0 L 737.0 549.0 L 736.0 549.0 L 736.0 548.0 L 735.0 548.0 L 735.0 547.0 L 734.0 547.0 L 734.0 546.0 L 733.0 546.0 L 733.0 545.0 L 732.0 545.0 L 732.0 544.0 L 731.0 544.0 L 731.0 543.0 L 730.0 543.0 L 730.0 542.0 L 729.0 542.0 L 729.0 541.0 L 728.0 541.0 L 728.0 540.0 L 727.0 540.0 L 726.0 538.0 L 724.0 538.0 L 724.0 537.0 L 723.0 537.0 L 723.0 536.0 L 722.0 536.0 L 722.0 535.0 L 721.0 535.0 L 721.0 534.0 L 720.0 534.0 L 720.0 533.0 L 719.0 533.0 L 719.0 532.0 L 718.0 532.0 L 718.0 531.0 L 717.0 531.0 L 717.0 530.0 L 716.0 530.0 L 716.0 529.0 L 715.0 529.0 L 715.0 528.0 L 714.0 528.0 L 713.0 526.0 L 711.0 526.0 L 711.0 525.0 L 710.0 525.0 L 710.0 524.0 L 709.0 524.0 L 709.0 523.0 L 708.0 523.0 L 708.0 522.0 L 707.0 522.0 L 707.0 521.0 L 706.0 521.0 L 706.0 520.0 L 705.0 520.0 L 705.0 519.0 L 704.0 519.0 L 704.0 518.0 L 703.0 518.0 L 703.0 517.0 L 702.0 517.0 L 701.0 515.0 L 699.0 515.0 L 699.0 514.0 L 698.0 514.0 L 698.0 513.0 L 697.0 513.0 L 697.0 512.0 L 696.0 512.0 L 696.0 511.0 L 695.0 511.0 L 695.0 510.0 L 694.0 510.0 L 694.0 509.0 L 693.0 509.0 L 693.0 508.0 L 692.0 508.0 L 692.0 507.0 L 691.0 507.0 L 691.0 506.0 L 690.0 506.0 L 690.0 505.0 L 689.0 505.0 L 689.0 504.0 L 688.0 504.0 L 688.0 503.0 L 687.0 503.0 L 686.0 501.0 L 684.0 501.0 L 684.0 500.0 L 683.0 500.0 L 683.0 499.0 L 682.0 499.0 L 682.0 498.0 L 681.0 498.0 L 681.0 497.0 L 680.0 497.0 L 680.0 496.0 L 679.0 496.0 L 679.0 495.0 L 678.0 495.0 L 678.0 494.0 L 677.0 494.0 L 677.0 493.0 L 676.0 493.0 L 676.0 492.0 L 675.0 492.0 L 675.0 491.0 L 674.0 491.0 L 674.0 490.0 L 673.0 490.0 L 673.0 489.0 L 672.0 489.0 L 672.0 488.0 L 671.0 488.0 L 671.0 487.0 L 670.0 487.0 L 669.0 485.0 L 667.0 485.0 L 667.0 484.0 L 666.0 484.0 L 666.0 483.0 L 665.0 483.0 L 665.0 482.0 L 664.0 482.0 L 664.0 481.0 L 663.0 481.0 L 663.0 480.0 L 662.0 480.0 L 662.0 479.0 L 661.0 479.0 L 661.0 478.0 L 660.0 478.0 L 660.0 477.0 L 659.0 477.0 L 659.0 476.0 L 658.0 476.0 L 657.0 474.0 L 655.0 474.0 L 654.0 472.0 L 651.0 472.0 L 651.0 471.0 L 648.0 471.0 L 648.0 470.0 L 640.0 470.0 L 640.0 471.0 L 637.0 471.0 L 637.0 472.0 L 635.0 472.0 L 635.0 473.0 L 633.0 473.0 L 633.0 474.0 L 632.0 474.0 L 632.0 475.0 L 631.0 475.0 L 631.0 476.0 L 630.0 476.0 L 630.0 477.0 L 628.0 478.0 L 628.0 480.0 L 627.0 480.0 L 627.0 482.0 L 626.0 482.0 L 626.0 485.0 L 625.0 485.0 L 625.0 498.0 L 626.0 498.0 L 626.0 501.0 L 627.0 501.0 L 627.0 503.0 L 628.0 503.0 L 628.0 505.0 L 629.0 505.0 L 629.0 507.0 L 630.0 507.0 L 630.0 508.0 L 631.0 508.0 L 631.0 510.0 L 632.0 510.0 L 632.0 511.0 L 633.0 511.0 L 633.0 512.0 L 635.0 513.0 L 635.0 515.0 L 636.0 515.0 L 636.0 516.0 L 637.0 516.0 L 637.0 517.0 L 638.0 517.0 L 639.0 519.0 L 641.0 519.0 L 641.0 520.0 L 642.0 520.0 L 642.0 521.0 L 643.0 521.0 L 643.0 522.0 L 644.0 522.0 L 644.0 523.0 L 645.0 523.0 L 645.0 524.0 L 646.0 524.0 L 647.0 526.0 L 649.0 526.0 L 649.0 527.0 L 650.0 527.0 L 650.0 528.0 L 651.0 528.0 L 651.0 529.0 L 652.0 529.0 L 652.0 530.0 L 653.0 530.0 L 653.0 531.0 L 654.0 531.0 L 655.0 533.0 L 657.0 533.0 L 657.0 535.0 L 658.0 535.0 L 658.0 536.0 L 659.0 536.0 L 659.0 537.0 L 660.0 537.0 L 660.0 538.0 L 661.0 538.0 L 661.0 539.0 L 662.0 539.0 L 663.0 541.0 L 665.0 541.0 L 665.0 542.0 L 666.0 542.0 L 666.0 543.0 L 667.0 543.0 L 667.0 544.0 L 668.0 544.0 L 668.0 545.0 L 669.0 545.0 L 670.0 547.0 L 672.0 547.0 L 672.0 548.0 L 673.0 548.0 L 673.0 549.0 L 675.0 550.0 L 675.0 552.0 L 676.0 552.0 L 676.0 553.0 L 677.0 553.0 L 677.0 554.0 L 678.0 554.0 L 679.0 556.0 L 681.0 556.0 L 681.0 557.0 L 682.0 557.0 L 682.0 558.0 L 683.0 558.0 L 683.0 559.0 L 684.0 559.0 L 684.0 560.0 L 685.0 560.0 L 685.0 561.0 L 686.0 561.0 L 687.0 563.0 L 689.0 563.0 L 689.0 564.0 L 690.0 564.0 L 690.0 565.0 L 691.0 565.0 L 691.0 566.0 L 692.0 566.0 L 692.0 567.0 L 693.0 567.0 L 693.0 568.0 L 694.0 568.0 L 694.0 569.0 L 695.0 569.0 L 695.0 570.0 L 696.0 570.0 L 696.0 571.0 L 697.0 571.0 L 697.0 572.0 L 698.0 572.0 L 698.0 573.0 L 699.0 573.0 L 699.0 574.0 L 700.0 574.0 L 701.0 576.0 L 703.0 576.0 L 703.0 577.0 L 704.0 577.0 L 704.0 578.0 L 705.0 578.0 L 705.0 579.0 L 706.0 579.0 L 706.0 580.0 L 707.0 580.0 L 707.0 581.0 L 708.0 581.0 L 709.0 583.0 L 711.0 583.0 L 711.0 584.0 L 712.0 584.0 L 712.0 585.0 L 713.0 585.0 L 713.0 586.0 L 714.0 586.0 L 714.0 587.0 L 715.0 587.0 L 715.0 588.0 L 716.0 588.0 L 716.0 589.0 L 717.0 589.0 L 717.0 590.0 L 718.0 590.0 L 718.0 591.0 L 719.0 591.0 L 719.0 592.0 L 720.0 592.0 L 721.0 594.0 L 723.0 594.0 L 723.0 595.0 L 724.0 595.0 L 724.0 596.0 L 725.0 596.0 L 725.0 597.0 L 726.0 597.0 L 726.0 598.0 L 727.0 598.0 L 727.0 599.0 L 728.0 599.0 L 728.0 600.0 L 729.0 600.0 L 729.0 601.0 L 730.0 601.0 L 730.0 602.0 L 731.0 602.0 L 731.0 603.0 L 732.0 603.0 L 732.0 604.0 L 733.0 604.0 L 733.0 605.0 L 734.0 605.0 L 735.0 607.0 L 737.0 607.0 L 737.0 608.0 L 738.0 608.0 L 738.0 609.0 L 739.0 609.0 L 739.0 610.0 L 740.0 610.0 L 740.0 611.0 L 741.0 611.0 L 742.0 613.0 L 744.0 613.0 L 744.0 614.0 L 745.0 614.0 L 745.0 615.0 L 747.0 616.0 L 747.0 618.0 L 748.0 618.0 L 749.0 620.0 L 751.0 620.0 L 751.0 621.0 L 752.0 621.0 L 752.0 622.0 L 753.0 622.0 L 753.0 623.0 L 754.0 623.0 L 754.0 624.0 L 755.0 624.0 L 756.0 626.0 L 758.0 626.0 L 758.0 627.0 L 759.0 627.0 L 759.0 628.0 L 760.0 628.0 L 760.0 629.0 L 761.0 629.0 L 761.0 630.0 L 763.0 631.0 L 763.0 633.0 L 764.0 633.0 L 765.0 635.0 L 767.0 635.0 L 768.0 637.0 L 770.0 637.0 L 770.0 638.0 L 771.0 638.0 L 771.0 639.0 L 772.0 639.0 L 772.0 640.0 L 773.0 640.0 L 773.0 641.0 L 774.0 641.0 L 774.0 642.0 L 775.0 642.0 L 775.0 643.0 L 776.0 643.0 L 776.0 644.0 L 777.0 644.0 L 777.0 645.0 L 778.0 645.0 L 778.0 646.0 L 779.0 646.0 L 779.0 647.0 L 780.0 647.0 L 781.0 649.0 L 783.0 649.0 L 783.0 650.0 L 784.0 650.0 L 784.0 651.0 L 785.0 651.0 L 785.0 652.0 L 786.0 652.0 L 786.0 653.0 L 787.0 653.0 L 787.0 654.0 L 788.0 654.0 L 788.0 655.0 L 789.0 655.0 L 789.0 656.0 L 790.0 656.0 L 791.0 658.0 L 793.0 658.0 L 793.0 659.0 L 794.0 659.0 L 794.0 660.0 L 795.0 660.0 L 795.0 661.0 L 796.0 661.0 L 796.0 662.0 L 797.0 662.0 L 797.0 663.0 L 798.0 663.0 L 798.0 664.0 L 799.0 664.0 L 799.0 665.0 L 800.0 665.0 L 800.0 666.0 L 801.0 666.0 L 801.0 667.0 L 802.0 667.0 L 803.0 669.0 L 805.0 669.0 L 805.0 670.0 L 806.0 670.0 L 806.0 671.0 L 807.0 671.0 L 807.0 672.0 L 808.0 672.0 L 808.0 673.0 L 809.0 673.0 L 809.0 674.0 L 810.0 674.0 L 810.0 675.0 L 811.0 675.0 L 811.0 676.0 L 812.0 676.0 L 812.0 677.0 L 813.0 677.0 L 813.0 678.0 L 814.0 678.0 L 815.0 680.0 L 817.0 680.0 L 817.0 681.0 L 818.0 681.0 L 818.0 682.0 L 819.0 682.0 L 819.0 683.0 L 820.0 683.0 L 820.0 684.0 L 821.0 684.0 L 821.0 685.0 L 822.0 685.0 L 822.0 686.0 L 823.0 686.0 L 823.0 687.0 L 824.0 687.0 L 824.0 688.0 L 825.0 688.0 L 826.0 690.0 L 828.0 690.0 L 828.0 691.0 L 829.0 691.0 L 829.0 692.0 L 830.0 692.0 L 830.0 693.0 L 831.0 693.0 L 831.0 694.0 L 832.0 694.0 L 832.0 695.0 L 833.0 695.0 L 833.0 696.0 L 834.0 696.0 L 834.0 697.0 L 835.0 697.0 L 835.0 698.0 L 836.0 698.0 L 837.0 700.0 L 839.0 700.0 L 839.0 701.0 L 840.0 701.0 L 840.0 702.0 L 841.0 702.0 L 841.0 703.0 L 842.0 703.0 L 842.0 704.0 L 843.0 704.0 L 843.0 705.0 L 844.0 705.0 L 844.0 706.0 L 845.0 706.0 L 845.0 707.0 L 846.0 707.0 L 846.0 708.0 L 847.0 708.0 L 848.0 710.0 L 850.0 710.0 L 850.0 711.0 L 851.0 711.0 L 851.0 713.0 L 852.0 713.0 L 852.0 714.0 L 853.0 714.0 L 853.0 715.0 L 854.0 715.0 L 855.0 717.0 L 857.0 717.0 L 857.0 718.0 L 858.0 718.0 L 858.0 719.0 L 859.0 719.0 L 859.0 720.0 L 860.0 720.0 L 860.0 721.0 L 861.0 721.0 L 861.0 722.0 L 862.0 722.0 L 862.0 723.0 L 864.0 724.0 L 864.0 726.0 L 866.0 727.0 L 866.0 729.0 L 868.0 730.0 L 868.0 732.0 L 869.0 732.0 L 869.0 734.0 L 870.0 734.0 L 870.0 735.0 L 871.0 735.0 L 871.0 737.0 L 872.0 737.0 L 872.0 740.0 L 873.0 740.0 L 873.0 743.0 L 874.0 743.0 L 874.0 747.0 L 875.0 747.0 L 875.0 753.0 L 876.0 753.0 L 876.0 963.0 L 875.0 963.0 L 875.0 967.0 L 874.0 967.0 L 874.0 970.0 L 873.0 970.0 L 873.0 972.0 L 871.0 973.0 L 871.0 975.0 L 870.0 975.0 L 870.0 976.0 L 869.0 976.0 L 869.0 977.0 L 868.0 977.0 L 867.0 979.0 L 865.0 979.0 L 865.0 980.0 L 863.0 980.0 L 863.0 981.0 L 861.0 981.0 Z"/>
  </g>
</svg>
