<?xml version="1.0" encoding="UTF-8" standalone="no"?><!DOCTYPE svg PUBLIC "-//W3C//DTD SVG 1.1//EN" "http://www.w3.org/Graphics/SVG/1.1/DTD/svg11.dtd"><svg width="100%" height="100%" viewBox="0 0 400 400" version="1.1" xmlns="http://www.w3.org/2000/svg" xmlns:xlink="http://www.w3.org/1999/xlink" xml:space="preserve" xmlns:serif="http://www.serif.com/" style="fill-rule:evenodd;clip-rule:evenodd;stroke-linejoin:round;stroke-miterlimit:2;"><g><g><path d="M200,54.679c86.684,0 157.06,70.376 157.06,157.06c-0,31.274 -9.416,99.034 -57.804,107.436c-38.385,6.665 -80.935,-11.801 -94.177,-50.479c-1.886,-5.507 -2.745,-19.931 -0,-33.093c1.879,-9.01 11.292,-28.117 11.292,-28.117l-12.983,-6.582c-0,0 73.764,25.796 75.818,17.196c1.294,-5.421 -48.146,-32.788 -47.158,-37.957c5.18,-27.088 3.623,-49.749 -31.361,-57.026c-53.249,-11.077 -73.092,47.628 -57.831,105.088c31.922,120.19 -16.522,123.307 -30.693,113.722c-41.754,-28.241 -69.223,-76.032 -69.223,-130.188c0,-86.684 70.376,-157.06 157.06,-157.06Z" style="fill:#1c56a0;"/><path d="M227.317,187.381c1.25,1.481 2.727,1.491 3.859,0.932c0.916,-0.453 1.821,-1.322 1.318,-2.433c-0.235,-0.522 -1.049,-0.859 -1.708,-1.428c-0.03,0.786 -0.363,1.686 -1.055,2.27c-0.692,0.584 -1.634,0.762 -2.414,0.659Z" style="fill:#1c56a0;"/><path d="M203.561,160.732c-0.129,-0.174 -0.248,-0.357 -0.357,-0.55c-1.301,-2.315 -0.598,-5.183 1.569,-6.401c-0.1,1.344 0.239,3.183 1.18,4.856c0.246,0.438 0.523,0.846 0.82,1.222c1.079,-0.557 2.281,-0.737 3.447,-0.425c2.87,0.769 4.441,4.229 3.506,7.722c-0.936,3.493 -4.025,5.705 -6.896,4.936c-2.87,-0.768 -4.441,-4.228 -3.505,-7.721c0.01,-0.039 0.021,-0.078 0.032,-0.116c-0.507,-0.18 -0.996,-0.445 -1.445,-0.799c-2.088,-1.641 -2.535,-4.559 -0.998,-6.514c0.393,1.194 1.303,2.638 2.647,3.79Zm7.995,1.005c1.005,0.27 1.603,1.305 1.334,2.31c-0.269,1.006 -1.304,1.603 -2.31,1.334c-1.005,-0.269 -1.603,-1.304 -1.334,-2.31c0.269,-1.005 1.304,-1.603 2.31,-1.334Z" style="fill:#1c56a0;"/></g><path d="M185.399,174.194c5.346,0.8 9.267,4.258 8.749,7.719c-0.517,3.461 -5.278,5.622 -10.625,4.823c-5.346,-0.8 -9.267,-4.259 -8.749,-7.72c0.517,-3.461 5.278,-5.621 10.625,-4.822Z" style="fill:#ef4ed5;"/></g></svg>